<?xml version="1.0" encoding="utf-8"?>
<!-- Generator: Adobe Illustrator 16.0.0, SVG Export Plug-In . SVG Version: 6.00 Build 0)  -->
<!DOCTYPE svg PUBLIC "-//W3C//DTD SVG 1.1//EN" "http://www.w3.org/Graphics/SVG/1.1/DTD/svg11.dtd">
<svg version="1.1" id="Layer_1" xmlns="http://www.w3.org/2000/svg" xmlns:xlink="http://www.w3.org/1999/xlink" x="0px" y="0px"
	 width="1081.688px" height="492px" viewBox="-113.313 228.5 1081.688 492" enable-background="new -113.313 228.5 1081.688 492"
	 xml:space="preserve">
<line fill="none" stroke="#FFFFFF" stroke-miterlimit="10" x1="-68.094" y1="569.949" x2="135.895" y2="464.953"/>
<line opacity="0.6" fill="none" stroke="#FFFFFF" stroke-miterlimit="10" x1="101.397" y1="569.949" x2="33.901" y2="421.457"/>
<line opacity="0.6" fill="none" stroke="#FFFFFF" stroke-miterlimit="10" x1="33.901" y1="421.457" x2="359.383" y2="392.958"/>
<line opacity="0.6" fill="none" stroke="#FFFFFF" stroke-miterlimit="10" x1="359.383" y1="392.958" x2="587.373" y2="485.953"/>
<line fill="none" stroke="#FFFFFF" stroke-miterlimit="10" x1="549.125" y1="538.449" x2="516.126" y2="667.443"/>
<line fill="none" stroke="#FFFFFF" stroke-miterlimit="10" x1="516.126" y1="667.443" x2="658.619" y2="602.947"/>
<line fill="none" stroke="#FFFFFF" stroke-miterlimit="10" x1="710.365" y1="548.949" x2="636.869" y2="407.207"/>
<line fill="none" stroke="#FFFFFF" stroke-miterlimit="10" x1="636.869" y1="407.207" x2="780.863" y2="374.959"/>
<line opacity="0.4" fill="none" stroke="#FFFFFF" stroke-miterlimit="10" x1="422.381" y1="517.451" x2="413.381" y2="689.943"/>
<line fill="none" stroke="#FFFFFF" stroke-miterlimit="10" x1="395.383" y1="671.943" x2="224.391" y2="533.951"/>
<line fill="none" stroke="#FFFFFF" stroke-miterlimit="10" x1="251.39" y1="506.951" x2="455.379" y2="421.457"/>
<line fill="none" stroke="#FFFFFF" stroke-miterlimit="10" x1="455.379" y1="421.457" x2="587.373" y2="421.457"/>
<line fill="none" stroke="#FFFFFF" stroke-miterlimit="10" x1="285.888" y1="448.455" x2="188.393" y2="323.962"/>
<line fill="none" stroke="#FFFFFF" stroke-miterlimit="10" x1="-3.597" y1="337.461" x2="122.396" y2="386.209"/>
<line fill="none" stroke="#FFFFFF" stroke-miterlimit="10" x1="285.888" y1="448.455" x2="395.383" y2="323.962"/>
<line fill="none" stroke="#FFFFFF" stroke-miterlimit="10" x1="122.396" y1="386.209" x2="188.393" y2="323.962"/>
<line fill="none" stroke="#FFFFFF" stroke-miterlimit="10" x1="-3.597" y1="635.195" x2="122.396" y2="689.943"/>
<line fill="none" stroke="#FFFFFF" stroke-miterlimit="10" x1="79.281" y1="698.363" x2="218.281" y2="622.363"/>
<line opacity="0.2" fill="none" stroke="#FFFFFF" stroke-miterlimit="10" x1="184.281" y1="603.697" x2="329.281" y2="506.951"/>
<line opacity="0.2" fill="none" stroke="#FFFFFF" stroke-miterlimit="10" x1="184.281" y1="603.697" x2="74.281" y2="611.363"/>
<line fill="none" stroke="#FFFFFF" stroke-miterlimit="10" x1="780.863" y1="642.363" x2="927.281" y2="733.363"/>
<line fill="none" stroke="#FFFFFF" stroke-miterlimit="10" x1="780.863" y1="642.363" x2="805.281" y2="506.951"/>
<line fill="none" stroke="#FFFFFF" stroke-miterlimit="10" x1="805.281" y1="506.951" x2="727.281" y2="485.953"/>
<line fill="none" stroke="#FFFFFF" stroke-miterlimit="10" x1="727.281" y1="485.953" x2="701.281" y2="311.363"/>
<circle fill="#FFFFFF" cx="122.396" cy="386.209" r="4.125">
<animate  fill="remove" restart="always" additive="replace" accumulate="none" repeatCount="indefinite" calcMode="spline" keyTimes="    0;0.22;0.33;0.55;0.66;0.88;1" keySplines="    0.1 0.8 0.2 1;     0.1 0.8 0.2 1;     0.1 0.8 0.2 1;     0.1 0.8 0.2 1;     0.1 0.8 0.2 1;     0.1 0.8 0.2 1" values="127;117;117;90;90;127;127" dur="4s" begin="0s" to="127" from="127" attributeName="cy">
	</animate>
</circle>
<circle fill="#FFFFFF" cx="286.333" cy="447.054" r="4.125"/>
<circle fill="#FFFFFF" cx="395.383" cy="323.962" r="4.125"/>
<circle opacity="0.6" fill="#FFFFFF" cx="359.383" cy="392.958" r="4.125"/>
<circle fill="#FFFFFF" cx="455.379" cy="421.457" r="4.125"/>
<circle fill="#FFFFFF" cx="585.378" cy="421.457" r="4.125"/>
<circle fill="#FFFFFF" cx="521.376" cy="355.086" r="4.125"/>
<circle opacity="0.6" fill="#FFFFFF" cx="587.373" cy="485.953" r="4.125"/>
<circle fill="#FFFFFF" cx="636.869" cy="407.207" r="4.125"/>
<circle fill="#FFFFFF" cx="701.279" cy="311.363" r="4.125"/>
<circle fill="#FFFFFF" cx="780.863" cy="374.959" r="4.125"/>
<circle fill="#FFFFFF" cx="920.023" cy="468.329" r="4.125"/>
<circle fill="#FFFFFF" cx="880.687" cy="417.332" r="4.125"/>
<circle opacity="0.4" fill="#FFFFFF" cx="708.867" cy="546.863" r="4.125"/>
<circle opacity="0.4" fill="#FFFFFF" cx="658.621" cy="602.947" r="4.125"/>
<circle opacity="0.4" fill="#FFFFFF" cx="549.125" cy="538.449" r="4.125"/>
<circle opacity="0.4" fill="#FFFFFF" cx="422.381" cy="517.451" r="4.125"/>
<circle fill="#FFFFFF" cx="516.126" cy="667.443" r="4.125"/>
<circle fill="#FFFFFF" cx="585.378" cy="671.568" r="4.125"/>
<circle fill="#FFFFFF" cx="712.992" cy="675.693" r="4.125"/>
<circle fill="#FFFFFF" cx="731.406" cy="603.697" r="4.125"/>
<circle opacity="0.4" fill="#FFFFFF" cx="413.381" cy="689.943" r="4.125"/>
<circle fill="#FFFFFF" cx="393.217" cy="671.943" r="4.125"/>
<circle fill="#FFFFFF" cx="224.391" cy="533.951" r="4.125"/>
<circle fill="#FFFFFF" cx="218.281" cy="622.363" r="4.125"/>
<circle opacity="0.2" fill="#FFFFFF" cx="184.281" cy="603.529" r="4.125"/>
<circle opacity="0.2" fill="#FFFFFF" cx="74.281" cy="611.363" r="4.125"/>
<circle fill="#FFFFFF" cx="122.396" cy="689.943" r="4.125"/>
<circle fill="#FFFFFF" cx="-1.313" cy="634.195" r="4.125"/>
<circle fill="#FFFFFF" cx="-47.313" cy="671.943" r="4.125"/>
<circle fill="#FFFFFF" cx="-63.301" cy="478.072" r="4.125"/>
<circle fill="#FFFFFF" cx="0.528" cy="495.703" r="4.125"/>
<circle fill="#FFFFFF" cx="101.397" cy="569.949" r="4.125"/>
<circle fill="#FFFFFF" cx="46.687" cy="252.5" r="4.125"/>
<circle fill="#FFFFFF" cx="-47.313" cy="421.457" r="4.125"/>
<circle fill="#FFFFFF" cx="18.687" cy="403.082" r="4.125"/>
<circle fill="#FFFFFF" cx="135.895" cy="464.953" r="4.125"/>
<circle opacity="0.6" fill="#FFFFFF" cx="33.9" cy="421.457" r="4.125"/>
<circle fill="#FFFFFF" cx="-3.597" cy="337.461" r="4.125"/>
<circle fill="#FFFFFF" cx="78.405" cy="698.363" r="4.125"/>
<circle fill="#FFFFFF" cx="-68.094" cy="569.949" r="4.125"/>
<circle opacity="0.2" fill="#FFFFFF" cx="327.281" cy="506.951" r="4.125"/>
<circle fill="#FFFFFF" cx="727.281" cy="485.953" r="4.125"/>
<circle fill="#FFFFFF" cx="894.689" cy="646.488" r="4.125"/>
<circle fill="#FFFFFF" cx="776.738" cy="702.487" r="4.125"/>
<circle fill="#FFFFFF" cx="905.482" cy="598.822" r="4.125"/>
<circle fill="#FFFFFF" cx="805.281" cy="506.951" r="4.125"/>
<circle fill="#FFFFFF" cx="780.863" cy="642.363" r="4.125"/>
<circle fill="#FFFFFF" cx="252.656" cy="506.951" r="4.125"/>
<circle fill="#FFFFFF" cx="188.393" cy="323.962" r="4.125"/>
<line fill="none" stroke="#FFFFFF" stroke-miterlimit="10" x1="395.383" y1="671.943" x2="297.594" y2="702.488"/>
<line fill="none" stroke="#FFFFFF" stroke-miterlimit="10" x1="46.687" y1="252.5" x2="-47.313" y2="421.457"/>
<line fill="none" stroke="#FFFFFF" stroke-miterlimit="10" x1="-47.313" y1="421.457" x2="0.528" y2="495.703"/>
<line fill="none" stroke="#FFFFFF" stroke-miterlimit="10" x1="521.376" y1="355.086" x2="654.496" y2="555.324"/>
<polyline fill="none" stroke="#FFFFFF" stroke-miterlimit="10" points="654.496,555.324 583.248,671.568 714.281,676.068 
	731.406,603.697 904.687,598.822 1008.687,490.078 "/>
<polyline fill="none" stroke="#FFFFFF" stroke-miterlimit="10" points="-149.313,252.5 18.687,403.082 -63.969,478.078 
	79.281,398.658 184.281,496.452 0.528,495.703 "/>
<polyline fill="none" stroke="#FFFFFF" stroke-miterlimit="10" points="976.687,294.5 880.687,417.332 918.687,469.078 
	892.687,646.488 776.738,702.488 "/>
<polyline opacity="0.4" fill="none" stroke="#FFFFFF" stroke-miterlimit="10" points="459.504,521.576 426.506,517.451 
	549.125,538.076 658.621,607.072 704.742,546.863 845.259,542.738 880.687,417.332 "/>
<polyline fill="none" stroke="#FFFFFF" stroke-miterlimit="10" points="-3.597,631.07 -68.094,574.074 -47.313,671.568 
	-129.692,698.363 "/>
</svg>
